<svg viewBox="0 0 280 240" xmlns="http://www.w3.org/2000/svg">
  <!-- Background elements -->
  <circle cx="40" cy="40" r="8" fill="#c7d2fe" opacity="0.6"/>
  <circle cx="240" cy="200" r="12" fill="#dbeafe" opacity="0.5"/>
  
  <!-- Father -->
  <circle cx="80" cy="80" r="20" fill="#fdbcb4"/>
  <rect x="60" y="100" width="40" height="50" rx="5" fill="#ef4444"/>
  <rect x="50" y="150" width="15" height="35" fill="#1f2937"/>
  <rect x="85" y="150" width="15" height="35" fill="#1f2937"/>
  
  <!-- Mother -->
  <circle cx="200" cy="75" r="22" fill="#fdbcb4"/>
  <path d="M 200 75 Q 185 75 185 95 L 215 95 Q 215 75 200 75" fill="#1f2937"/>
  <rect x="175" y="95" width="50" height="55" rx="3" fill="#1e40af"/>
  <rect x="165" y="150" width="14" height="40" fill="#1f2937"/>
  <rect x="201" y="150" width="14" height="40" fill="#1f2937"/>
  
  <!-- Son (left) -->
  <circle cx="110" cy="140" r="15" fill="#fdbcb4"/>
  <path d="M 110 140 Q 100 140 100 155 L 120 155" fill="#1f2937"/>
  <rect x="100" y="155" width="20" height="30" fill="#22c55e"/>
  <rect x="95" y="185" width="10" height="25" fill="#1f2937"/>
  <rect x="110" y="185" width="10" height="25" fill="#1f2937"/>
  
  <!-- Daughter (center-right) -->
  <circle cx="145" cy="135" r="14" fill="#fdbcb4"/>
  <path d="M 145 135 Q 135 135 135 148 L 155 148" fill="#1f2937"/>
  <rect x="135" y="148" width="20" height="28" fill="#fbbf24"/>
  <rect x="132" y="176" width="9" height="22" fill="#1f2937"/>
  <rect x="146" y="176" width="9" height="22" fill="#1f2937"/>
  
  <!-- Speech bubbles and stars -->
  <circle cx="30" cy="120" r="20" fill="#14b8a6"/>
  <circle cx="30" cy="120" r="16" fill="#14b8a6"/>
  <circle cx="22" cy="112" r="3" fill="white"/>
  <circle cx="30" cy="112" r="3" fill="white"/>
  <circle cx="38" cy="112" r="3" fill="white"/>
  
  <polygon points="230,30 240,50 220,50" fill="#fbbf24"/>
  <polygon points="250,50 260,65 240,65" fill="#fbbf24"/>
  <polygon points="235,65 245,80 225,80" fill="#fbbf24"/>
  <polygon points="245,85 255,95 235,95" fill="#fbbf24"/>
  <polygon points="260,40 268,55 252,55" fill="#fbbf24"/>
</svg>