<svg xmlns="http://www.w3.org/2000/svg" version="1.1" xmlns:xlink="http://www.w3.org/1999/xlink" width="512" height="512" x="0" y="0" viewBox="0 0 496.2 496.2" style="enable-background:new 0 0 512 512" xml:space="preserve" class=""><g><path d="M496.2 248.1C496.2 111.1 385.1 0 248.1 0S0 111.1 0 248.1s111.1 248.1 248.1 248.1 248.1-111.1 248.1-248.1z" style="" fill="#32bea6" data-original="#32bea6"></path><path d="M287 282.1h-77.8c12.1 36.6 1 53.3 1 53.3l26.9 6.1h22l26.9-6.1s-11.1-16.7 1-53.3z" style="" fill="#e2a379" data-original="#e2a379"></path><path d="M248.2 390.1c44.9 0 37.8-54.7 37.8-54.7s-8.9 17.3-38.1 17.3-37.5-17.3-37.5-17.3-7.1 54.7 37.8 54.7z" style="" fill="#e2a379" data-original="#e2a379"></path><path d="M247.8 333.4c-77.2 0-139.1 22.1-146.4 49.3-3.3 12.2-7 35.2-10.1 57.5 42.7 34.9 97.4 55.9 156.9 55.9s114.1-21 156.9-55.9c-3.2-22.3-6.9-45.4-10.1-57.5-7.5-27.2-70.1-49.3-147.2-49.3z" style="" fill="#e2a379" data-original="#e2a379"></path><path d="M247.8 333.4c-77.2 0-139.1 22.1-146.4 49.3-3.3 12.2-7 35.2-10.1 57.5 42.7 34.9 97.4 55.9 156.9 55.9s114.1-21 156.9-55.9c-3.2-22.3-6.9-45.4-10.1-57.5-7.5-27.2-70.1-49.3-147.2-49.3z" style="" fill="#e9f2f4" data-original="#e9f2f4"></path><path d="M247.7 333.4h-9.3c-19.7.3-37.9 1.8-52.9 4.1 0 0 4 37.9 4 58.6l58.5 69 58.3-68.9c0-42.6-.1-58.9-.1-58.9-16.7-2.5-35.9-3.9-58.5-3.9z" style="" fill="#78ddf4" data-original="#78ddf4"></path><path d="M287 282.1h-77.8c12.1 36.6 1 53.3 1 53.3l26.9 6.1h22l26.9-6.1s-11.1-16.7 1-53.3z" style="" fill="#e2a379" data-original="#e2a379"></path><path d="m248.1 340.2-15.7 4.7s5.4 25.6 15.7 25.6c10.3 0 15.7-25.6 15.7-25.6l-15.7-4.7z" style="" fill="#9b1818" data-original="#9b1818"></path><path d="M248.1 468.9s16.1-29.4 23.7-45.8l-19.7-65.7H244l-19.5 65.4c7.6 16.5 23.6 46.1 23.6 46.1z" style="" fill="#9b1818" data-original="#9b1818"></path><path d="m306.5 336.6-18.6-16.2-39.8 19.8s58.1 32.8 58.4 32.6v-36.2z" style="" fill="#4ecff2" data-original="#4ecff2"></path><path d="m358 351.6-64.7-26.7-45.2 144.2 81.9-96-11-11h16.5z" style="" fill="#c9dee2" data-original="#c9dee2"></path><path d="m189.7 336.6 18.6-16.2 39.8 19.9s-58.1 32.8-58.3 32.6v-36.3h-.1z" style="" fill="#4ecff2" data-original="#4ecff2"></path><path d="m138.1 351.6 65-26.7 45 144.2-82-96 11-11h-16.5z" style="" fill="#c9dee2" data-original="#c9dee2"></path><path d="M214.8 312c-34.9 8.6-59.8 30.2-59.8 55.4v85.3h5v-85.3c0-22.7 22.7-42.2 54.7-50.3.2-1.6.2-3.3.1-5.1zM281.4 312c0 1.8 0 3.5.1 5.1 32.1 8.1 54.7 27.6 54.7 50.3v15.7h5v-15.6c0-25.3-24.9-46.9-59.8-55.5z" style="" fill="#3f3f3f" data-original="#3f3f3f"></path><circle cx="157.6" cy="444" r="16.7" style="" fill="#5e5e5e" data-original="#5e5e5e"></circle><circle cx="157.6" cy="444" r="14.6" style="" fill="#828282" data-original="#828282"></circle><circle cx="157.6" cy="444" r="10.3" style="" fill="#5e5e5e" data-original="#5e5e5e"></circle><circle cx="157.6" cy="444" r="7.4" style="" fill="#828282" data-original="#828282"></circle><path d="M349.4 459.3c-5.8 0-13.5-.1-20.1-3.6-8.3-4.4-12.6-13.1-12.6-25.7v-21.6h4V430c0 11.2 3.4 18.5 10.4 22.2 6 3.2 13.4 3.2 18.9 3.2h.6v4h-.6c-.2-.1-.4-.1-.6-.1z" style="" fill="#69696b" data-original="#69696b"></path><path d="M354.9 457.3c0 2.3-1.9 4.2-4.2 4.2-2.3 0-4.2-1.9-4.2-4.2 0-2.3 1.9-4.2 4.2-4.2 2.2-.1 4.2 1.8 4.2 4.2z" style="" fill="#69696b" data-original="#69696b"></path><path d="M327.8 459.2h-1.2v-4h.6c5.4 0 12.9 0 18.9-3.2 7-3.7 10.4-11 10.4-22.2v-21.6h4v21.6c0 12.7-4.2 21.3-12.6 25.7-6.6 3.6-14.3 3.7-20.1 3.7z" style="" fill="#8d8d8e" data-original="#8d8d8e"></path><path d="M322.4 457.2c0 2.3 1.9 4.2 4.2 4.2 2.3 0 4.2-1.9 4.2-4.2 0-2.3-1.9-4.2-4.2-4.2-2.3-.1-4.2 1.8-4.2 4.2z" style="" fill="#8d8d8e" data-original="#8d8d8e"></path><path d="M358.5 410.8c-1.4 0-2.5-1.1-2.5-2.5v-6.6c0-9.6-7.8-17.4-17.4-17.4s-17.4 7.8-17.4 17.4v6.6c0 1.4-1.1 2.5-2.5 2.5s-2.5-1.1-2.5-2.5v-6.6c0-12.3 10-22.4 22.4-22.4s22.4 10 22.4 22.4v6.6c0 1.3-1.1 2.5-2.5 2.5z" style="" fill="#3f3f3f" data-original="#3f3f3f"></path><path d="M327.9 175.2c0-92.4-35.7-113.6-79.8-113.6-44 0-79.8 21.2-79.8 113.6 0 31.3 5.6 55.8 14 74.7 18.4 41.6 50.3 56.1 65.8 56.1s47.3-14.5 65.8-56.1c8.4-18.9 14-43.4 14-74.7z" style="" fill="#f4b382" data-original="#f4b382"></path><path d="M206.9 169.6c-19.1 0-34.7 3.3-34.7 27.2 0 15.1 8.6 30.1 34.7 30.1 19.1 0 34.7-15.1 34.7-30.1s-15.5-27.2-34.7-27.2zm0 51.4c-20.7 0-27.5-12-27.5-23.9 0-19 12.3-21.6 27.5-21.6s27.5 9.7 27.5 21.6c0 11.9-12.3 23.9-27.5 23.9z" style="" fill="#261d17" data-original="#261d17"></path><path d="M206.9 175.5c-15.2 0-27.5 2.7-27.5 21.6 0 11.9 6.8 23.9 27.5 23.9 15.2 0 27.5-12 27.5-23.9s-12.3-21.6-27.5-21.6z" style="" fill="#f4c4a4" data-original="#f4c4a4"></path><path d="M206.9 175.5c-15.2 0-27.5 2.7-27.5 21.6 0 10 4.8 20 18.5 23l16.5-43.8c-2.4-.5-4.9-.8-7.5-.8z" style="" fill="#f4ccb0" data-original="#f4ccb0" class=""></path><path d="M234.4 197.1c0-9.9-8.5-18.2-20-20.8L198 220.1c2.6.6 5.6.9 9 .9 15.1 0 27.4-12 27.4-23.9z" style="" fill="#f4c4a4" data-original="#f4c4a4"></path><path d="M176.4 188.7c-.9 0-1.8-.4-2.5-1.1l-13.3-14.5c-1.3-1.4-1.2-3.6.2-4.8 1.4-1.3 3.6-1.2 4.8.2l13.3 14.5c1.3 1.4 1.2 3.6-.2 4.8-.6.6-1.4.9-2.3.9zM320.4 188.7c.9 0 1.8-.4 2.5-1.1l13.3-14.5c1.3-1.4 1.2-3.6-.2-4.8-1.4-1.3-3.6-1.2-4.8.2L317.9 183c-1.3 1.4-1.2 3.6.2 4.8.7.6 1.5.9 2.3.9z" style="" fill="#261d17" data-original="#261d17"></path><path d="M254.5 196.8c0 15.1 15.5 30.1 34.7 30.1 26.1 0 34.7-15.1 34.7-30.1 0-23.9-15.5-27.2-34.7-27.2s-34.7 12.2-34.7 27.2zm7.2.3c0-11.9 12.3-21.6 27.5-21.6s27.5 2.7 27.5 21.6c0 11.9-6.8 23.9-27.5 23.9-15.2 0-27.5-12-27.5-23.9z" style="" fill="#261d17" data-original="#261d17"></path><path d="M289.2 175.5c15.2 0 27.5 2.7 27.5 21.6 0 11.9-6.8 23.9-27.5 23.9-15.2 0-27.5-12-27.5-23.9s12.3-21.6 27.5-21.6z" style="" fill="#f4c4a4" data-original="#f4c4a4"></path><path d="M289.2 175.5c-2.6 0-5.1.3-7.5.8-11.5 2.6-20 10.9-20 20.8s8.4 19.8 19.9 22.9l16.5-44c-2.8-.4-5.8-.5-8.9-.5z" style="" fill="#f4ccb0" data-original="#f4ccb0" class=""></path><path d="M298.1 220.1c13.7-3 18.5-13 18.5-23 0-15-7.7-19.8-18.5-21.1l-16.5 44c2.4.7 4.9 1 7.6 1 3.3 0 6.3-.3 8.9-.9z" style="" fill="#f4c4a4" data-original="#f4c4a4"></path><path d="M260.3 200.6h-21.7c-.2 0-6-11.9-5.7-11.9h30.2c.3 0-2.6 11.9-2.8 11.9z" style="" fill="#261d17" data-original="#261d17"></path><path d="M258.4 200.7c-3-2.1-6.6-4.2-10.5-4.2-2.9 0-5.8 1.6-8.2 2.8-3.9 2-3.9 12.7-3.9 12.7 2.2-4.7 7-7.7 12.2-7.7 5.1 0 9.9 3 12.2 7.7-.1.1 1.1-9.3-1.8-11.3z" style="" fill="#261d17" data-original="#261d17"></path><path d="M160.7 207.7c4.3 25.2 9.6 26.3 17.3 25l-8.1-54.8c-7.7 1.4-13.5 4.7-9.2 29.8zM326.5 178l-8.1 54.8c7.6 1.3 13 .1 17.3-25 4.2-25.2-1.6-28.5-9.2-29.8z" style="" fill="#f4b382" data-original="#f4b382"></path><path d="M330.8 210.1c99.2-99.2-25.3-148.5-82.7-148.5s-180.8 50.3-82.7 148.5l9.5-38.9c45.8 0 84.9-26.9 113.2-52.3 12 33.2 42.7 91.2 42.7 91.2z" style="" fill="#3a1d12" data-original="#3a1d12"></path><path d="M274.8 263.8s-14.2 9.6-26.7 9.6-26.7-9.6-26.7-9.6c0-1.4 11.3-5.3 16.1-6 3-.5 10.6 2.5 10.6 2.5s7.5-2.9 10.4-2.5c4.9.7 16.3 6 16.3 6z" style="" fill="#cc785e" data-original="#cc785e"></path><path d="M274.8 263.8s-14.2 13.5-26.7 13.5-26.7-13.5-26.7-13.5 6.5 1.5 19.6.7c2.2-.1 5.1 1.6 7 1.6 1.7 0 4.2-1.8 6.1-1.7 13.8.8 20.7-.6 20.7-.6z" style="" fill="#c16952" data-original="#c16952"></path></g></svg>