<svg width="100" height="100" viewBox="0 0 100 100" fill="none" xmlns="http://www.w3.org/2000/svg">
<path d="M50 60C37.3181 60 27 49.6827 27 37C27 24.3173 37.3181 14 50 14C62.6819 14 73 24.3181 73 37C73 49.6819 62.6819 60 50 60ZM50 23.5347C42.5749 23.5347 36.5347 29.5757 36.5347 37C36.5347 44.4243 42.5757 50.4653 50 50.4653C57.4243 50.4653 63.4653 44.4251 63.4653 37C63.4653 29.5749 57.4243 23.5347 50 23.5347Z" fill="#FF356E"/>
<path d="M49.9993 85.1683C47.3661 85.1683 45.2319 83.0334 45.2319 80.401V55.2327C45.2319 52.6003 47.3661 50.4653 49.9993 50.4653C52.6324 50.4653 54.7658 52.6003 54.7658 55.2327V80.401C54.7658 83.0334 52.6324 85.1683 49.9993 85.1683Z" fill="#FF356E"/>
<path d="M62.1175 76.0707H38.1052C35.4729 76.0707 33.3379 73.9357 33.3379 71.3033C33.3379 68.6702 35.4729 66.536 38.1052 66.536H62.1175C64.7499 66.536 66.8848 68.6702 66.8848 71.3033C66.8848 73.9357 64.7507 76.0707 62.1175 76.0707Z" fill="#FF356E"/>
</svg>
