<svg width="100" height="100" viewBox="0 0 100 100" fill="none" xmlns="http://www.w3.org/2000/svg">
<path d="M44.0631 78C31.3456 78 21 67.6536 21 54.9369C21 42.2203 31.3456 31.8739 44.0631 31.8739C56.7806 31.8739 67.1262 42.2203 67.1262 54.9369C67.1262 67.6536 56.7806 78 44.0631 78ZM44.0631 41.4339C36.6176 41.4339 30.5608 47.4915 30.5608 54.9361C30.5608 62.3808 36.6184 68.4384 44.0631 68.4384C51.5086 68.4384 57.5653 62.3808 57.5653 54.9361C57.5653 47.4915 51.5086 41.4339 44.0631 41.4339Z" fill="#26A5FC"/>
<path d="M56.9905 46.7895C55.7675 46.7895 54.5437 46.3226 53.6107 45.3896C51.7432 43.5229 51.7432 40.4961 53.6099 38.6293L66.4318 25.8075C68.2993 23.9407 71.3269 23.9407 73.1921 25.8075C75.0596 27.6742 75.0596 30.701 73.1929 32.5678L60.371 45.3896C59.438 46.3226 58.2142 46.7895 56.9905 46.7895Z" fill="#26A5FC"/>
<path d="M73.4437 42.5995C70.8033 42.5995 68.6633 40.4586 68.6633 37.8191V30.5608H60.9557C58.3161 30.5608 56.1753 28.42 56.1753 25.7804C56.1753 23.1408 58.3161 21 60.9557 21H73.4437C76.0833 21 78.2241 23.1408 78.2241 25.7804V37.8191C78.2241 40.4586 76.0833 42.5995 73.4437 42.5995Z" fill="#26A5FC"/>
</svg>
