<svg width="100" height="100" viewBox="0 0 100 100" fill="none" xmlns="http://www.w3.org/2000/svg">
<path d="M52.319 33.0819C48.4443 34.8902 45.5899 38.5117 44.8495 42.8555C44.8244 43.4028 44.7682 43.9414 44.6783 44.4699C44.6689 44.6748 44.647 44.8765 44.647 45.0837C44.647 49.3743 46.7063 53.1842 49.879 55.607C52.6318 51.859 54.2626 47.2376 54.2626 42.241C54.2626 38.9823 53.5645 35.8847 52.319 33.0819Z" fill="#FF356E"/>
<path d="M37.209 54.2427C35.5109 55.0355 33.6251 55.4905 31.6315 55.4905C24.3261 55.4905 18.3827 49.5471 18.3827 42.2409C18.3827 34.9348 24.3269 28.9914 31.6315 28.9914C34.6462 28.9914 37.4201 30.0148 39.6491 31.7176C41.5364 29.1477 43.9538 26.9922 46.7371 25.4067C42.7279 21.8056 37.4318 19.6095 31.6307 19.6095C19.152 19.6095 9 29.7622 9 42.2409C9 54.7197 19.152 64.8724 31.6307 64.8724C35.6876 64.8724 39.4943 63.7943 42.7905 61.9179C40.4278 59.7953 38.5162 57.1832 37.209 54.2427Z" fill="#FF356E"/>
<path d="M57.8974 21.6703C53.3894 21.6703 49.1887 23.0002 45.6564 25.2816C48.1535 27.2596 50.223 29.7505 51.7069 32.5956C53.556 31.6136 55.6614 31.0522 57.8966 31.0522C65.2028 31.0522 71.1462 36.9957 71.1462 44.3018C71.1462 51.608 65.202 57.5514 57.8966 57.5514C50.5905 57.5514 44.647 51.608 44.647 44.3018C44.647 43.57 44.7221 42.857 44.837 42.1573C44.5603 37.9089 42.2852 34.2007 38.9303 31.9771C36.6161 35.5266 35.2651 39.7587 35.2651 44.3026C35.2651 56.7821 45.4172 66.9341 57.8966 66.9341C70.3761 66.9341 80.5281 56.7821 80.5281 44.3026C80.5289 31.8231 70.3769 21.6703 57.8974 21.6703Z" fill="#26A5FC"/>
<path d="M31.6314 89.6375C29.0404 89.6375 26.9404 87.5368 26.9404 84.9466V60.1823C26.9404 57.5913 29.0404 55.4913 31.6314 55.4913C34.2223 55.4913 36.3223 57.5921 36.3223 60.1823V84.9474C36.3223 87.5376 34.2223 89.6375 31.6314 89.6375Z" fill="#FF356E"/>
<path d="M43.5558 80.6856H19.9283C17.3381 80.6856 15.2373 78.5849 15.2373 75.9947C15.2373 73.4037 17.3381 71.3037 19.9283 71.3037H43.5558C46.146 71.3037 48.2467 73.4037 48.2467 75.9947C48.2467 78.5857 46.146 80.6856 43.5558 80.6856Z" fill="#FF356E"/>
<path d="M70.5831 36.3069C69.3822 36.3069 68.1822 35.8495 67.2659 34.9332C65.434 33.1014 65.434 30.1313 67.2666 28.2995L79.8493 15.7176C81.6812 13.8857 84.6521 13.8857 86.4831 15.7176C88.3149 17.5494 88.3149 20.5195 86.4823 22.3513L73.8996 34.9332C72.9849 35.8488 71.7832 36.3069 70.5831 36.3069Z" fill="#26A5FC"/>
<path d="M86.729 32.1953C84.138 32.1953 82.038 30.0953 82.038 27.5043V20.3819H74.4746C71.8845 20.3819 69.7837 18.2819 69.7837 15.691C69.7837 13.1008 71.8845 11 74.4746 11H86.729C89.3192 11 91.4199 13.1008 91.4199 15.691V27.5043C91.4199 30.0953 89.3192 32.1953 86.729 32.1953Z" fill="#26A5FC"/>
<path d="M49.5722 46.9327C46.9813 46.9327 44.8813 44.8319 44.8813 42.2417C44.8813 34.9356 38.9371 28.9921 31.6317 28.9921C24.3263 28.9921 18.3829 34.9364 18.3829 42.2417C18.3829 44.8319 16.2829 46.9327 13.6919 46.9327C11.1017 46.9327 9.00098 44.8319 9.00098 42.2417C9.00098 29.763 19.153 19.6102 31.6317 19.6102C44.1112 19.6102 54.2632 29.763 54.2632 42.2417C54.2632 44.8319 52.1632 46.9327 49.5722 46.9327Z" fill="#FF356E"/>
</svg>
